<svg width="1050" height="997" viewBox="0 0 1050 997" fill="none" xmlns="http://www.w3.org/2000/svg">
<circle cx="525" cy="498" r="498" fill="white"/>
<path d="M774.369 545.787C789.666 582.711 794.224 623.204 787.518 662.604C780.811 702.004 763.114 738.71 736.463 768.493C761.943 735.938 775.929 695.864 776.24 654.524C776.551 613.184 763.169 572.904 738.181 539.969C713.194 507.034 678.007 483.296 638.111 472.461C598.215 461.625 555.855 464.301 517.64 480.07L497.31 430.658C549.319 409.195 607.722 409.266 659.678 430.856C711.634 452.446 752.888 493.787 774.369 545.787Z" fill="#171E60"/>
<path d="M881.098 372.776C913.735 451.355 918.713 538.69 895.216 620.47C900.06 563.565 890.18 506.371 866.526 454.389C842.871 402.407 806.239 357.387 760.152 323.658C714.065 289.93 660.074 268.628 603.373 261.802C546.671 254.976 489.168 262.855 436.392 284.681L388.463 168.634C480.865 130.42 584.66 130.457 677.035 168.736C769.411 207.015 842.809 280.404 881.098 372.776Z" fill="#171E60"/>
<path d="M825.334 483.881C845.727 533.113 851.809 587.1 842.881 639.635C833.952 692.169 810.376 741.116 774.863 780.846C808.887 737.418 827.565 683.94 827.976 628.772C828.386 573.604 810.508 519.854 777.135 475.924C743.761 431.993 696.774 400.357 643.515 385.961C590.257 371.564 533.73 375.218 482.769 396.352L455.663 330.846C524.98 302.14 602.86 302.135 672.181 330.832C741.501 359.53 796.589 414.58 825.334 483.881Z" fill="#171E60"/>
<path d="M288.157 415.128C275.413 384.487 271.049 351.006 275.515 318.122C279.981 285.237 293.115 254.132 313.569 227.999C281.503 263.827 262.556 309.483 259.832 357.487C257.108 405.492 270.769 452.998 298.576 492.223C326.383 531.448 366.687 560.067 412.887 573.389C459.086 586.711 508.44 583.948 552.863 565.552L532.534 516.14C486.727 535.091 435.273 535.099 389.46 516.162C343.647 497.226 307.215 460.891 288.157 415.128Z" fill="#0A5694"/>
<path d="M178.604 531.67C158.144 482.463 149.862 429.044 154.463 375.952C135.014 444.138 135.184 516.427 154.953 584.521C174.723 652.615 213.291 713.756 266.232 760.925C319.172 808.095 384.34 839.382 454.254 851.196C524.169 863.01 595.999 854.873 661.498 827.717L613.498 711.599C531.967 745.402 440.347 745.436 358.791 711.694C277.234 677.951 212.42 613.196 178.604 531.67Z" fill="#0A5694"/>
<path d="M241.075 465.034C224.135 424.16 218.371 379.515 224.375 335.678C230.379 291.842 247.934 250.391 275.24 215.576C232.541 263.367 207.329 324.237 203.729 388.223C200.13 452.21 218.356 515.523 255.425 567.802C292.495 620.081 346.211 658.23 407.785 676.004C469.358 693.779 535.141 690.127 594.369 665.646L567.263 600.14C506.091 625.474 437.361 625.473 376.191 600.136C315.02 574.799 266.418 526.203 241.075 465.034Z" fill="#0A5694"/>
</svg>
