<svg width="1995" height="694" viewBox="0 0 1995 694" fill="none" xmlns="http://www.w3.org/2000/svg">
<path d="M266.399 383.422H194.498V377.443L199.079 375.968C203.065 374.467 205.782 372.474 207.232 369.989C208.681 367.505 209.406 364.166 209.406 359.973C209.561 349.05 209.639 338.102 209.639 327.128C209.639 316.154 209.639 305.128 209.639 294.05V283.723C209.639 272.646 209.587 261.62 209.483 250.646C209.432 239.672 209.406 228.646 209.406 217.568C209.406 213.013 208.733 209.545 207.387 207.163C206.041 204.782 203.272 202.919 199.079 201.573L194.498 200.098V194.119H275.25C298.182 194.119 314.799 198.363 325.1 206.853C335.401 215.342 340.552 226.083 340.552 239.076C340.552 249.015 336.928 257.945 329.681 265.865C322.434 273.785 309.726 279.453 291.556 282.869C312.573 285.199 327.766 290.66 337.135 299.253C346.453 307.846 351.112 318.328 351.112 330.7C351.112 336.808 349.792 342.968 347.152 349.18C344.46 355.392 339.931 361.086 333.563 366.262C327.145 371.387 318.5 375.528 307.629 378.686C296.759 381.843 283.015 383.422 266.399 383.422ZM250.326 202.427V280.928H263.759C276.752 280.928 286.173 278.003 292.022 272.154C297.82 266.356 300.719 256.392 300.719 242.26C300.719 227.559 298.053 217.232 292.721 211.279C287.389 205.378 278.978 202.427 267.486 202.427H250.326ZM250.326 289.159V375.114H266.088C280.427 375.114 291.116 371.594 298.156 364.554C305.248 357.462 308.794 346.1 308.794 330.467C308.794 315.352 305.403 304.688 298.622 298.476C291.841 292.265 280.712 289.159 265.234 289.159H250.326ZM397.234 225.876C390.97 225.876 385.639 223.883 381.239 219.898C376.839 215.86 374.639 210.787 374.639 204.679C374.639 198.415 376.839 193.316 381.239 189.382C385.639 185.448 390.97 183.481 397.234 183.481C403.549 183.481 408.907 185.448 413.307 189.382C417.707 193.316 419.907 198.415 419.907 204.679C419.907 210.787 417.707 215.86 413.307 219.898C408.907 223.883 403.549 225.876 397.234 225.876ZM429.923 383.422H364.312V377.987L368.582 376.822C372.413 375.683 375.001 373.975 376.347 371.698C377.693 369.42 378.469 366.366 378.676 362.535V309.813C378.676 303.912 378.676 298.425 378.676 293.352C378.676 288.279 378.573 283.076 378.366 277.745C378.366 273.914 377.641 270.912 376.192 268.738C374.794 266.512 372.18 265.036 368.349 264.312L364.312 263.458V258.255L414.472 241.639L417.888 244.822L417.034 285.509V362.768C417.034 366.599 417.733 369.653 419.131 371.931C420.58 374.26 423.116 375.994 426.74 377.133L429.923 377.987V383.422ZM514.093 387.46C499.961 387.46 487.615 384.483 477.055 378.531C466.443 372.629 458.213 364.243 452.363 353.373C446.566 342.451 443.667 329.458 443.667 314.394C443.667 299.33 446.773 286.338 452.985 275.415C459.196 264.545 467.582 256.21 478.142 250.413C488.754 244.563 500.738 241.639 514.093 241.639C527.448 241.639 539.432 244.563 550.043 250.413C560.655 256.21 569.067 264.519 575.279 275.338C581.491 286.105 584.596 299.123 584.596 314.394C584.596 329.458 581.672 342.502 575.822 353.528C570.025 364.502 561.872 372.888 551.363 378.686C540.855 384.535 528.432 387.46 514.093 387.46ZM514.093 379.385C520.978 379.385 526.568 377.521 530.865 373.794C535.161 370.119 538.267 363.596 540.182 354.227C542.098 344.858 543.055 331.761 543.055 314.938C543.055 297.959 542.098 284.759 540.182 275.338C538.267 265.865 535.161 259.265 530.865 255.538C526.568 251.81 520.978 249.947 514.093 249.947C507.208 249.947 501.669 251.81 497.476 255.538C493.283 259.265 490.178 265.865 488.159 275.338C486.192 284.759 485.208 297.959 485.208 314.938C485.208 331.761 486.192 344.858 488.159 354.227C490.178 363.596 493.283 370.119 497.476 373.794C501.669 377.521 507.208 379.385 514.093 379.385Z" fill="#0A5694"/>
<path d="M767.457 301.478C771.471 311.167 772.667 321.792 770.908 332.131C769.148 342.469 764.504 352.1 757.511 359.916C764.197 351.373 767.867 340.858 767.948 330.01C768.03 319.163 764.518 308.593 757.962 299.951C751.405 291.309 742.172 285.08 731.704 282.237C721.235 279.394 710.12 280.096 700.092 284.234L694.758 271.268C708.404 265.636 723.729 265.655 737.363 271.32C750.996 276.985 761.821 287.833 767.457 301.478Z" fill="#171E60"/>
<path d="M795.463 256.08C804.027 276.699 805.333 299.616 799.168 321.075C800.439 306.143 797.846 291.135 791.639 277.495C785.432 263.855 775.82 252.042 763.727 243.192C751.634 234.341 737.467 228.752 722.588 226.961C707.71 225.169 692.621 227.237 678.773 232.964L666.196 202.514C690.443 192.486 717.678 192.496 741.917 202.54C766.156 212.585 785.416 231.842 795.463 256.08Z" fill="#171E60"/>
<path d="M780.83 285.234C786.182 298.152 787.778 312.318 785.435 326.103C783.092 339.888 776.905 352.732 767.587 363.157C776.515 351.762 781.416 337.729 781.524 323.253C781.632 308.777 776.94 294.673 768.183 283.146C759.426 271.619 747.097 263.317 733.122 259.54C719.147 255.762 704.314 256.721 690.942 262.266L683.829 245.078C702.018 237.545 722.454 237.544 740.643 245.074C758.833 252.604 773.288 267.049 780.83 285.234Z" fill="#171E60"/>
<path d="M639.876 267.193C636.532 259.153 635.387 250.368 636.559 241.739C637.731 233.11 641.177 224.948 646.544 218.091C638.13 227.492 633.158 239.472 632.444 252.068C631.729 264.665 635.313 277.13 642.61 287.423C649.907 297.715 660.482 305.225 672.605 308.721C684.728 312.216 697.678 311.491 709.335 306.664L704 293.699C691.98 298.671 678.479 298.673 666.458 293.704C654.437 288.736 644.877 279.201 639.876 267.193Z" fill="#0A5694"/>
<path d="M611.13 297.774C605.761 284.862 603.588 270.845 604.795 256.913C599.692 274.805 599.736 293.774 604.924 311.642C610.111 329.51 620.232 345.553 634.123 357.93C648.015 370.307 665.114 378.517 683.46 381.617C701.805 384.717 720.653 382.581 737.84 375.456L725.245 344.987C703.852 353.857 679.811 353.866 658.41 345.012C637.01 336.158 620.003 319.166 611.13 297.774Z" fill="#0A5694"/>
<path d="M627.522 280.289C623.077 269.563 621.565 257.848 623.14 246.346C624.715 234.843 629.322 223.966 636.487 214.831C625.283 227.371 618.667 243.344 617.722 260.133C616.778 276.923 621.561 293.537 631.287 307.255C641.014 320.973 655.11 330.983 671.266 335.647C687.423 340.311 704.685 339.352 720.226 332.929L713.113 315.74C697.062 322.388 679.027 322.387 662.976 315.739C646.925 309.091 634.172 296.339 627.522 280.289Z" fill="#0A5694"/>
<path d="M886.74 383.422H814.839V377.443L819.42 375.968C823.458 374.467 826.176 372.474 827.573 369.989C829.023 367.505 829.747 364.166 829.747 359.973C829.954 349.051 830.058 338.102 830.058 327.128C830.058 316.154 830.058 305.128 830.058 294.051V283.723C830.058 272.646 830.006 261.62 829.903 250.646C829.799 239.672 829.747 228.646 829.747 217.568C829.747 213.013 829.074 209.545 827.729 207.163C826.383 204.782 823.613 202.919 819.42 201.573L814.839 200.098V194.119H895.592C918.524 194.119 935.14 198.363 945.441 206.853C955.743 215.342 960.893 226.083 960.893 239.076C960.893 249.015 957.27 257.945 950.023 265.865C942.776 273.785 930.093 279.453 911.976 282.869C932.94 285.199 948.107 290.66 957.477 299.253C966.846 307.846 971.531 318.328 971.531 330.7C971.531 336.808 970.185 342.968 967.493 349.18C964.853 355.392 960.324 361.086 953.905 366.262C947.538 371.387 938.893 375.528 927.971 378.686C917.1 381.843 903.357 383.422 886.74 383.422ZM870.745 202.427V280.928H884.178C897.171 280.928 906.566 278.003 912.364 272.154C918.213 266.356 921.138 256.392 921.138 242.26C921.138 227.559 918.446 217.232 913.063 211.279C907.731 205.378 899.345 202.427 887.905 202.427H870.745ZM870.745 289.159V375.114H886.43C900.769 375.114 911.484 371.594 918.576 364.554C925.616 357.462 929.136 346.1 929.136 330.467C929.136 315.352 925.745 304.688 918.964 298.476C912.183 292.265 901.053 289.159 885.576 289.159H870.745ZM1025.96 387.46C1015.09 387.46 1005.88 384.354 998.319 378.142C990.761 371.931 986.983 363.001 986.983 351.354C986.983 342.192 991.434 333.728 1000.34 325.963C1009.19 318.251 1023.17 312.582 1042.27 308.959C1045.53 308.182 1049.31 307.458 1053.6 306.785C1057.9 306.112 1062.14 305.413 1066.34 304.688V284.345C1066.34 271.352 1064.71 262.371 1061.45 257.401C1058.19 252.432 1053.03 249.947 1045.99 249.947H1045.14C1040.74 249.947 1037.25 251.345 1034.66 254.14C1032.07 256.883 1030.41 261.413 1029.69 267.728L1028.83 271.455C1028.26 279.065 1026.25 284.655 1022.78 288.227C1019.36 291.747 1015.07 293.507 1009.89 293.507C1005.13 293.507 1001.17 292.032 998.009 289.081C994.851 286.079 993.272 282.196 993.272 277.434C993.272 269.618 995.964 263.043 1001.35 257.712C1006.68 252.328 1013.77 248.316 1022.62 245.676C1031.53 242.985 1041.13 241.639 1051.43 241.639C1068.41 241.639 1081.4 245.754 1090.41 253.985C1099.36 262.163 1103.84 275.519 1103.84 294.051V357.954C1103.84 366.133 1107.75 370.222 1115.57 370.222H1122.17L1125.04 373.406C1121.62 377.806 1117.79 381.196 1113.55 383.578C1109.35 385.959 1103.63 387.149 1096.39 387.149C1088.21 387.149 1081.66 385.182 1076.74 381.248C1071.88 377.366 1068.69 372.163 1067.19 365.641C1061.08 372.163 1055.08 377.418 1049.18 381.403C1043.22 385.441 1035.49 387.46 1025.96 387.46ZM1042.58 369.135C1046.36 369.135 1049.98 368.255 1053.45 366.495C1056.86 364.787 1061.16 361.94 1066.34 357.954V312.142C1061.37 312.867 1056.3 313.799 1051.12 314.938C1042.94 316.853 1036.31 320.399 1031.24 325.575C1026.17 330.752 1023.63 337.714 1023.63 346.462C1023.63 354.123 1025.39 359.818 1028.91 363.545C1032.48 367.272 1037.04 369.135 1042.58 369.135ZM1198.96 383.422H1132.18V377.987L1136.53 376.822C1142.79 374.752 1145.93 369.989 1145.93 362.535C1145.93 356.013 1145.98 349.465 1146.08 342.891C1146.18 336.316 1146.24 329.768 1146.24 323.246V214.462C1146.24 210.425 1145.56 207.422 1144.22 205.455C1142.87 203.436 1140.31 201.935 1136.53 200.952L1132.18 199.865V194.429L1182.34 182.394L1186.07 184.956L1184.9 225.333V362.535C1185.11 366.366 1185.91 369.472 1187.31 371.853C1188.76 374.234 1191.3 375.891 1194.92 376.822L1198.96 377.987V383.422ZM1253.31 387.46C1242.44 387.46 1233.25 384.354 1225.75 378.142C1218.19 371.931 1214.41 363.001 1214.41 351.354C1214.41 342.192 1218.84 333.728 1227.69 325.963C1236.59 318.251 1250.59 312.582 1269.7 308.959C1272.9 308.182 1276.66 307.458 1280.95 306.785C1285.25 306.112 1289.52 305.413 1293.77 304.688V284.345C1293.77 271.352 1292.14 262.371 1288.87 257.401C1285.61 252.432 1280.46 249.947 1273.42 249.947H1272.57C1268.17 249.947 1264.67 251.345 1262.09 254.14C1259.5 256.883 1257.82 261.413 1257.04 267.728L1256.19 271.455C1255.62 279.065 1253.62 284.655 1250.21 288.227C1246.74 291.747 1242.44 293.507 1237.32 293.507C1232.55 293.507 1228.59 292.032 1225.44 289.081C1222.28 286.079 1220.7 282.196 1220.7 277.434C1220.7 269.618 1223.37 263.043 1228.7 257.712C1234.08 252.328 1241.2 248.316 1250.05 245.676C1258.95 242.985 1268.56 241.639 1278.86 241.639C1295.84 241.639 1308.8 245.754 1317.76 253.985C1326.77 262.163 1331.27 275.519 1331.27 294.051V357.954C1331.27 366.133 1335.18 370.222 1342.99 370.222H1349.59L1352.47 373.406C1349 377.806 1345.17 381.196 1340.98 383.578C1336.78 385.959 1331.06 387.149 1323.82 387.149C1315.59 387.149 1309.04 385.182 1304.17 381.248C1299.31 377.366 1296.12 372.163 1294.62 365.641C1288.51 372.163 1282.48 377.418 1276.53 381.403C1270.63 385.441 1262.89 387.46 1253.31 387.46ZM1269.93 369.135C1273.76 369.135 1277.41 368.255 1280.88 366.495C1284.29 364.787 1288.59 361.94 1293.77 357.954V312.142C1288.8 312.867 1283.72 313.799 1278.55 314.938C1270.32 316.853 1263.69 320.399 1258.67 325.575C1253.6 330.752 1251.06 337.714 1251.06 346.462C1251.06 354.123 1252.82 359.818 1256.34 363.545C1259.86 367.272 1264.39 369.135 1269.93 369.135ZM1424.6 383.422H1359.07V377.987L1363.65 376.822C1369.91 374.907 1373.04 370.222 1373.04 362.768V278.288C1372.89 274.302 1372.22 271.196 1371.02 268.971C1369.89 266.796 1367.43 265.321 1363.65 264.545L1359.07 263.458V258.255L1405.42 241.639L1408.84 244.822L1410.86 262.526C1417.74 256.418 1425.43 251.422 1433.92 247.54C1442.41 243.606 1450.77 241.639 1459 241.639C1471.58 241.639 1481.26 245.081 1488.04 251.966C1494.82 258.851 1498.21 269.359 1498.21 283.491V363.079C1498.21 370.533 1501.65 375.218 1508.54 377.133L1511.64 377.987V383.422H1445.8V377.987L1450.07 376.822C1456.38 374.752 1459.54 370.067 1459.54 362.768V277.745C1459.54 271.067 1458.12 266.201 1455.27 263.147C1452.43 260.093 1447.64 258.566 1440.91 258.566C1431.59 258.566 1421.86 262.655 1411.71 270.834V363.079C1411.71 370.533 1415.05 375.218 1421.73 377.133L1424.6 377.987V383.422ZM1593.56 387.46C1580.62 387.46 1568.9 384.639 1558.39 378.996C1547.88 373.354 1539.62 365.149 1533.62 354.382C1527.56 343.563 1524.53 330.415 1524.53 314.938C1524.53 299.512 1527.9 286.338 1534.63 275.415C1541.31 264.545 1550.21 256.211 1561.34 250.413C1572.52 244.563 1584.79 241.639 1598.14 241.639C1609.06 241.639 1618.33 243.451 1625.94 247.074C1633.6 250.698 1639.42 255.331 1643.41 260.973C1647.45 266.615 1649.47 272.594 1649.47 278.909C1649.47 284.241 1647.89 288.331 1644.73 291.178C1641.57 294.076 1637.51 295.526 1632.54 295.526C1627.21 295.526 1622.86 293.611 1619.5 289.78C1616.18 285.949 1614.24 281.083 1613.67 275.182C1613.46 271.352 1613.49 268.091 1613.75 265.399C1614.06 262.759 1614.03 260.196 1613.67 257.712C1612.9 254.451 1611.6 252.251 1609.79 251.112C1607.98 249.973 1605.44 249.403 1602.18 249.403C1590.17 249.403 1580.96 254.218 1574.54 263.846C1568.17 273.474 1564.99 289.081 1564.99 310.667C1564.99 329.199 1568.51 343.434 1575.55 353.373C1582.64 363.312 1593.61 368.281 1608.47 368.281C1617.27 368.281 1624.54 366.599 1630.29 363.234C1635.98 359.869 1641.21 355.055 1645.97 348.792L1650.55 352.208C1645.79 363.648 1638.49 372.371 1628.66 378.375C1618.82 384.432 1607.12 387.46 1593.56 387.46ZM1735.66 241.639C1747.66 241.639 1757.97 244.123 1766.56 249.093C1775.15 254.062 1781.8 260.895 1786.51 269.592C1791.17 278.288 1793.5 288.253 1793.5 299.486C1793.5 301.971 1793.4 304.326 1793.19 306.552C1793.04 308.726 1792.67 310.771 1792.11 312.686H1705.84C1706.05 332.356 1709.72 346.488 1716.86 355.081C1724.06 363.674 1734.52 367.971 1748.23 367.971C1757.81 367.971 1765.55 366.392 1771.45 363.234C1777.35 360.076 1782.79 355.625 1787.76 349.879L1792.34 354.227C1786.64 364.735 1778.88 372.888 1769.04 378.686C1759.21 384.535 1747.51 387.46 1733.95 387.46C1720.38 387.46 1708.45 384.587 1698.15 378.841C1687.85 373.095 1679.78 364.839 1673.93 354.072C1668.13 343.305 1665.23 330.363 1665.23 315.248C1665.23 299.615 1668.59 286.338 1675.32 275.415C1682.1 264.545 1690.9 256.211 1701.72 250.413C1712.49 244.563 1723.8 241.639 1735.66 241.639ZM1734.18 249.947C1728.69 249.947 1723.88 251.526 1719.74 254.683C1715.65 257.841 1712.41 263.38 1710.03 271.3C1707.65 279.22 1706.25 290.349 1705.84 304.688H1757.16C1759.23 285.38 1758.46 271.429 1754.83 262.836C1751.21 254.243 1744.33 249.947 1734.18 249.947Z" fill="#171E60"/>
<path d="M290.577 438.798V498.408H298.166V438.798H290.577ZM314.531 438.798V498.408H321.726V467.259C321.726 464.097 321.568 460.935 321.41 457.851C321.172 454.689 320.935 451.606 320.698 448.601H321.093L327.497 460.856L349.159 498.408H356.986V438.798H349.792V469.631C349.792 472.714 349.871 475.956 350.108 479.197C350.345 482.439 350.503 485.601 350.661 488.605H350.345L343.862 476.193L322.358 438.798H314.531ZM385.684 445.123V498.408H393.353V445.123H411.299V438.798H367.659V445.123H385.684ZM422.051 438.798V498.408H457.312V491.926H429.562V470.343H452.252V463.86H429.562V445.123H456.363V438.798H422.051ZM466.483 468.603C466.483 473.426 467.115 477.774 468.459 481.648C469.803 485.522 471.7 488.763 473.993 491.372C476.365 493.981 479.211 496.037 482.452 497.381C485.773 498.804 489.331 499.515 493.283 499.515C497.315 499.515 500.873 498.883 504.035 497.539C507.277 496.274 509.807 494.614 511.783 492.558V467.496H492.177V473.742H504.826V489.317C503.64 490.424 502.059 491.293 500.162 491.926C498.264 492.558 496.209 492.874 494.153 492.874C490.912 492.874 488.066 492.321 485.615 491.135C483.164 489.949 481.108 488.368 479.448 486.233C477.788 484.099 476.523 481.569 475.653 478.565C474.705 475.56 474.309 472.161 474.309 468.445C474.309 464.729 474.784 461.409 475.732 458.405C476.681 455.48 477.946 452.95 479.685 450.815C481.346 448.76 483.401 447.099 485.852 445.992C488.303 444.886 490.991 444.332 493.995 444.332C497.078 444.332 499.529 444.886 501.506 445.913C503.482 446.941 505.221 448.285 506.723 449.866L510.993 445.044C509.253 443.225 507.04 441.565 504.273 439.984C501.506 438.482 498.027 437.691 493.916 437.691C489.963 437.691 486.247 438.403 482.927 439.826C479.606 441.249 476.681 443.304 474.23 445.992C471.779 448.601 469.882 451.843 468.538 455.717C467.194 459.512 466.483 463.781 466.483 468.603ZM533.524 467.022V444.886H543.565C548.229 444.886 551.787 445.676 554.317 447.257C556.768 448.839 558.033 451.606 558.033 455.48C558.033 459.353 556.768 462.279 554.317 464.176C551.787 466.073 548.229 467.022 543.565 467.022H533.524ZM558.744 498.408H567.283L552.182 472.398C556.214 471.37 559.535 469.473 561.907 466.706C564.357 463.939 565.543 460.144 565.543 455.48C565.543 452.396 565.069 449.787 564.041 447.653C563.013 445.597 561.511 443.858 559.693 442.514C557.875 441.17 555.661 440.221 553.052 439.668C550.443 439.035 547.676 438.798 544.672 438.798H526.014V498.408H533.524V473.268H544.356L558.744 498.408ZM603.254 474.137H585.387L588.154 465.046C589.261 461.725 590.289 458.405 591.237 455.084C592.265 451.764 593.214 448.443 594.083 444.965H594.479C595.428 448.443 596.376 451.764 597.404 455.084C598.353 458.405 599.38 461.725 600.487 465.046L603.254 474.137ZM605.152 480.225L610.844 498.408H618.908L598.748 438.798H590.21L569.971 498.408H577.718L583.49 480.225H605.152ZM636.064 445.123V498.408H643.732V445.123H661.679V438.798H618.117V445.123H636.064ZM672.431 438.798V498.408H680.02V438.798H672.431ZM688.163 438.798L707.217 498.408H716.071L734.966 438.798H727.219L717.732 470.975C716.704 474.533 715.755 477.853 714.885 480.857C714.016 483.862 713.067 487.182 711.96 490.661H711.644C710.458 487.182 709.509 483.862 708.64 480.857C707.849 477.853 706.9 474.533 705.794 470.975L696.227 438.798H688.163ZM743.188 438.798V498.408H778.449V491.926H750.699V470.343H773.31V463.86H750.699V445.123H777.5V438.798H743.188ZM834.739 474.137H816.871L819.717 465.046C820.745 461.725 821.773 458.405 822.801 455.084C823.749 451.764 824.698 448.443 825.568 444.965H825.963C826.912 448.443 827.86 451.764 828.888 455.084C829.837 458.405 830.865 461.725 831.972 465.046L834.739 474.137ZM836.715 480.225L842.328 498.408H850.392L830.232 438.798H821.694L801.534 498.408H809.203L814.974 480.225H836.715ZM858.852 438.798V498.408H866.046V467.259C866.046 464.097 865.967 460.935 865.73 457.851C865.492 454.689 865.255 451.606 865.018 448.601H865.413L871.817 460.856L893.479 498.408H901.306V438.798H894.112V469.631C894.112 472.714 894.191 475.956 894.428 479.197C894.665 482.439 894.823 485.601 895.06 488.605H894.665L888.182 476.193L866.678 438.798H858.852ZM917.671 438.798V498.408H932.93C937.436 498.408 941.389 497.697 944.868 496.353C948.267 495.009 951.192 493.032 953.564 490.424C955.936 487.894 957.675 484.731 958.94 481.016C960.126 477.3 960.758 473.031 960.758 468.287C960.758 458.8 958.387 451.527 953.564 446.388C948.741 441.328 941.784 438.798 932.534 438.798H917.671ZM932.06 492.242H925.182V444.965H932.06C939.017 444.965 944.235 446.941 947.714 450.973C951.192 454.926 952.931 460.776 952.931 468.287C952.931 475.877 951.192 481.806 947.714 485.917C944.235 490.107 939.017 492.242 932.06 492.242ZM991.907 438.798V498.408H999.497V470.343H1027.17V498.408H1034.84V438.798H1027.17V463.781H999.497V438.798H991.907ZM1073.18 499.515C1076.9 499.515 1080.37 498.804 1083.46 497.302C1086.62 495.879 1089.31 493.823 1091.6 491.056C1093.81 488.368 1095.63 485.127 1096.82 481.253C1098.08 477.458 1098.72 473.11 1098.72 468.287C1098.72 463.623 1098.08 459.353 1096.82 455.559C1095.63 451.764 1093.81 448.522 1091.6 445.913C1089.31 443.304 1086.62 441.249 1083.46 439.826C1080.37 438.403 1076.9 437.691 1073.18 437.691C1069.39 437.691 1065.99 438.403 1062.82 439.747C1059.74 441.17 1057.05 443.225 1054.84 445.834C1052.55 448.443 1050.81 451.685 1049.62 455.48C1048.36 459.274 1047.72 463.544 1047.72 468.287C1047.72 473.11 1048.36 477.458 1049.62 481.253C1050.81 485.127 1052.55 488.368 1054.84 491.056C1057.05 493.823 1059.74 495.879 1062.82 497.302C1065.99 498.804 1069.39 499.515 1073.18 499.515ZM1073.18 492.874C1070.49 492.874 1068.12 492.321 1065.99 491.135C1063.77 489.949 1061.95 488.368 1060.37 486.154C1058.87 484.02 1057.68 481.49 1056.81 478.486C1055.95 475.481 1055.55 472.082 1055.55 468.287C1055.55 464.65 1055.95 461.33 1056.81 458.326C1057.68 455.321 1058.87 452.871 1060.37 450.815C1061.95 448.76 1063.77 447.099 1065.99 445.992C1068.12 444.886 1070.49 444.332 1073.18 444.332C1075.87 444.332 1078.24 444.886 1080.37 445.992C1082.59 447.099 1084.41 448.76 1085.91 450.815C1087.49 452.871 1088.68 455.321 1089.55 458.326C1090.41 461.33 1090.81 464.65 1090.81 468.287C1090.81 472.082 1090.41 475.481 1089.55 478.486C1088.68 481.49 1087.49 484.02 1085.91 486.154C1084.41 488.368 1082.59 489.949 1080.37 491.135C1078.24 492.321 1075.87 492.874 1073.18 492.874ZM1119.03 467.022V444.886H1129.07C1133.74 444.886 1137.3 445.676 1139.83 447.257C1142.28 448.839 1143.54 451.606 1143.54 455.48C1143.54 459.353 1142.28 462.279 1139.83 464.176C1137.3 466.073 1133.74 467.022 1129.07 467.022H1119.03ZM1144.25 498.408H1152.79L1137.69 472.398C1141.8 471.37 1145.04 469.473 1147.42 466.706C1149.87 463.939 1151.05 460.144 1151.05 455.48C1151.05 452.396 1150.58 449.787 1149.55 447.653C1148.52 445.597 1147.02 443.858 1145.2 442.514C1143.38 441.17 1141.17 440.221 1138.56 439.668C1136.03 439.035 1133.19 438.798 1130.18 438.798H1111.52V498.408H1119.03V473.268H1129.87L1144.25 498.408ZM1164.33 438.798V498.408H1171.37V465.599C1171.37 462.911 1171.21 459.986 1170.98 456.744C1170.74 453.582 1170.5 450.657 1170.34 447.969H1170.66L1175.4 461.251L1186.95 492.4H1191.21L1202.68 461.251L1207.5 447.969H1207.9C1207.66 450.657 1207.42 453.582 1207.18 456.744C1206.95 459.986 1206.87 462.911 1206.87 465.599V498.408H1214.06V438.798H1205.13L1193.67 470.817L1189.48 482.992H1189.16L1184.81 470.817L1173.27 438.798H1164.33ZM1252.41 499.515C1256.2 499.515 1259.6 498.804 1262.76 497.302C1265.85 495.879 1268.53 493.823 1270.83 491.056C1273.12 488.368 1274.86 485.127 1276.04 481.253C1277.31 477.458 1277.94 473.11 1277.94 468.287C1277.94 463.623 1277.31 459.353 1276.04 455.559C1274.86 451.764 1273.12 448.522 1270.83 445.913C1268.53 443.304 1265.85 441.249 1262.76 439.826C1259.6 438.403 1256.2 437.691 1252.41 437.691C1248.61 437.691 1245.21 438.403 1242.13 439.747C1238.97 441.17 1236.28 443.225 1234.06 445.834C1231.77 448.443 1230.03 451.685 1228.85 455.48C1227.58 459.274 1226.95 463.544 1226.95 468.287C1226.95 473.11 1227.58 477.458 1228.85 481.253C1230.03 485.127 1231.77 488.368 1234.06 491.056C1236.28 493.823 1238.97 495.879 1242.13 497.302C1245.21 498.804 1248.61 499.515 1252.41 499.515ZM1252.41 492.874C1249.72 492.874 1247.35 492.321 1245.21 491.135C1243 489.949 1241.18 488.368 1239.6 486.154C1238.1 484.02 1236.91 481.49 1236.04 478.486C1235.17 475.481 1234.78 472.082 1234.78 468.287C1234.78 464.65 1235.17 461.33 1236.04 458.326C1236.91 455.321 1238.1 452.871 1239.6 450.815C1241.18 448.76 1243 447.099 1245.21 445.992C1247.35 444.886 1249.72 444.332 1252.41 444.332C1255.09 444.332 1257.47 444.886 1259.6 445.992C1261.81 447.099 1263.63 448.76 1265.21 450.815C1266.72 452.871 1267.9 455.321 1268.77 458.326C1269.64 461.33 1270.04 464.65 1270.04 468.287C1270.04 472.082 1269.64 475.481 1268.77 478.486C1267.9 481.49 1266.72 484.02 1265.21 486.154C1263.63 488.368 1261.81 489.949 1259.6 491.135C1257.47 492.321 1255.09 492.874 1252.41 492.874ZM1290.75 438.798V498.408H1297.94V467.259C1297.94 464.097 1297.87 460.935 1297.63 457.851C1297.39 454.689 1297.15 451.606 1296.92 448.601H1297.31L1303.79 460.856L1325.38 498.408H1333.2V438.798H1326.01V469.631C1326.01 472.714 1326.17 475.956 1326.33 479.197C1326.56 482.439 1326.72 485.601 1326.96 488.605H1326.56L1320.16 476.193L1298.58 438.798H1290.75ZM1349.57 438.798V498.408H1384.83V491.926H1357.08V470.343H1379.77V463.86H1357.08V445.123H1383.96V438.798H1349.57ZM1415.82 438.798V498.408H1423.41V470.343H1451.08V498.408H1458.75V438.798H1451.08V463.781H1423.41V438.798H1415.82ZM1475.12 438.798V498.408H1510.38V491.926H1482.63V470.343H1505.24V463.86H1482.63V445.123H1509.43V438.798H1475.12ZM1548.32 474.137H1530.46L1533.22 465.046C1534.33 461.725 1535.36 458.405 1536.39 455.084C1537.33 451.764 1538.28 448.443 1539.15 444.965H1539.55C1540.5 448.443 1541.45 451.764 1542.47 455.084C1543.42 458.405 1544.45 461.725 1545.56 465.046L1548.32 474.137ZM1550.22 480.225L1555.91 498.408H1563.98L1543.82 438.798H1535.28L1515.04 498.408H1522.79L1528.56 480.225H1550.22ZM1572.44 438.798V498.408H1606.04V491.926H1579.95V438.798H1572.44ZM1618.05 445.123V498.408H1625.72V445.123H1643.67V438.798H1600.03V445.123H1618.05ZM1654.42 438.798V498.408H1661.93V470.343H1689.68V498.408H1697.35V438.798H1689.68V463.781H1661.93V438.798H1654.42Z" fill="#0A5694"/>
</svg>
